<svg fill="none" xmlns="http://www.w3.org/2000/svg"><g filter="url(#a)"><g filter="url(#b)"><path d="M.5 201c31.32 0 62.334-5.199 91.27-15.3 28.936-10.101 55.228-24.907 77.375-43.572 22.147-18.664 39.715-40.822 51.7-65.209C232.831 52.533 239 26.396 239 0H.5v201Z" fill="url(#c)" fill-opacity=".03"/></g><path d="M82.42 91.282c-1.277-3.548-3.904-5.322-7.88-5.323h-1.255v21.886h1.255c3.073 0 5.342-1.212 6.806-3.635 1.233-2.068 1.85-4.7 1.85-7.895-.003-1.901-.262-3.578-.776-5.033ZM60.884 91.545c1.278 3.548 3.904 5.322 7.879 5.322h1.255V74.98h-1.255c-3.074 0-5.343 1.212-6.807 3.635-1.23 2.067-1.844 4.7-1.845 7.895 0 1.899.258 3.577.773 5.034ZM40 40.028h16.698v5.796H45.994v2.898h8.892v5.5h-8.892v2.931h10.704v5.797H40V40.028ZM65.095 40H86.7L75.897 63.416 65.095 40Zm10.802 20.518 8.926-19.3H67.005l8.892 19.3ZM95.329 40.028h16.698v5.796h-10.704v2.898h8.892v5.5h-8.892v2.931h10.704v5.797H95.329V40.028ZM122.302 62.917V40h1.285l16.006 15.578V40h1.218v22.922l-18.509-.005ZM158.3 62.95V45.824h-8.662v-5.796h18.509v5.796h-8.662V62.95H158.3ZM49.846 79.549c1.45 0 2.602.22 3.458.658a5.75 5.75 0 0 1 3.228 5.27 5.506 5.506 0 0 1-.856 2.98 6.082 6.082 0 0 1-2.339 2.158 6.508 6.508 0 0 1 2.997 2.174 5.505 5.505 0 0 1 1.219 3.49 5.94 5.94 0 0 1-.873 3.146 6.352 6.352 0 0 1-2.322 2.256 6.151 6.151 0 0 1-1.613.593c-.593.131-1.384.197-2.372.197H40.23V79.549h9.617ZM88.462 100.808c-1.724-1.504-2.574-3.76-2.552-6.768h5.368c-.022 1.251.351 2.207 1.12 2.865.768.659 1.844.988 3.227.988 1.142 0 2.042-.186 2.7-.56.66-.373.989-.944.989-1.712 0-.637-.335-1.098-1.005-1.383a9.411 9.411 0 0 0-1.992-.61c-.659-.12-1.065-.194-1.219-.22a26.416 26.416 0 0 1-4.38-1.207 7.636 7.636 0 0 1-3.096-2.14c-.834-.967-1.251-2.24-1.251-3.821 0-1.58.417-2.926 1.251-4.034.835-1.11 1.949-1.938 3.343-2.487 1.455-.56 3.003-.84 4.561-.823 1.999 0 3.728.373 5.188 1.12 1.46.746 2.607 1.877 3.441 3.392.387.64.645 1.351.758 2.091.086.65.13 1.304.131 1.96h-5.368c0-1.186-.318-2.059-.955-2.619S97.096 84 95.757 84c-1.076 0-1.91.187-2.503.56-.593.374-.89.879-.89 1.515 0 .703.396 1.219 1.186 1.548a17.8 17.8 0 0 0 2.997.89c1.977.395 3.519.773 4.628 1.136a6.475 6.475 0 0 1 2.881 1.926c.813.923 1.219 2.218 1.219 3.887 0 1.58-.439 2.942-1.317 4.084-.879 1.141-2.037 2.014-3.475 2.618a11.937 11.937 0 0 1-4.66.906c-3.184-.004-5.637-.758-7.361-2.262ZM118.778 102.471V85.345h-8.662V79.55h18.51v5.796h-8.662v17.126h-1.186ZM134.85 79.549h16.698v5.796h-10.704v2.899h8.893v5.5h-8.893v2.93h10.704v5.797H134.85V79.549ZM176.281 102.471h-17.62V79.549h8.925c1.91 0 3.469.34 4.677 1.02a7.117 7.117 0 0 1 2.766 2.701 7.431 7.431 0 0 1 .988 3.788 7.263 7.263 0 0 1-1.581 4.594 7.44 7.44 0 0 1-3.985 2.684l5.83 8.135Zm-16.402-20.913V93.38h8.464l-8.464-11.823Zm0 19.695h14.096l-4.808-6.686-1.021.033h-8.267v6.653Zm.857-20.486 8.958 12.516a6.303 6.303 0 0 0 3.656-2.207 6.114 6.114 0 0 0 1.449-4.018 6.278 6.278 0 0 0-.89-3.294 5.842 5.842 0 0 0-2.503-2.272c-.966-.483-2.228-.725-3.787-.725h-6.883Z" fill="#fff"/></g><defs><filter id="a" x="-3.5" y="0" filterUnits="userSpaceOnUse" color-interpolation-filters="sRGB"><feFlood flood-opacity="0" result="BackgroundImageFix"/><feColorMatrix in="SourceAlpha" values="0 0 0 0 0 0 0 0 0 0 0 0 0 0 0 0 0 0 127 0" result="hardAlpha"/><feOffset dy="4"/><feGaussianBlur stdDeviation="2"/><feComposite in2="hardAlpha" operator="out"/><feColorMatrix values="0 0 0 0 0 0 0 0 0 0 0 0 0 0 0 0 0 0 0.25 0"/><feBlend in2="BackgroundImageFix" result="effect1_dropShadow"/><feBlend in="SourceGraphic" in2="effect1_dropShadow" result="shape"/></filter><filter id="b" x="-29.5" y="-30" filterUnits="userSpaceOnUse" color-interpolation-filters="sRGB"><feFlood flood-opacity="0" result="BackgroundImageFix"/><feGaussianBlur in="BackgroundImage" stdDeviation="15"/><feComposite in2="SourceAlpha" operator="in" result="effect1_backgroundBlur"/><feBlend in="SourceGraphic" in2="effect1_backgroundBlur" result="shape"/></filter><linearGradient id="c" x1="281.622" y1="-75.662" x2="-49.624" y2="302.993" gradientUnits="userSpaceOnUse"><stop stop-color="#C4C4C4"/><stop offset="1" stop-color="#C4C4C4" stop-opacity="0"/></linearGradient></defs></svg>