<svg aria-hidden="true" style="position: absolute; width: 0; height: 0; overflow: hidden;" version="1.1" xmlns="http://www.w3.org/2000/svg" xmlns:xlink="http://www.w3.org/1999/xlink">
<defs>
<symbol id="icon-close" viewBox="0 0 32 32">
<path fill="#4c00fe" style="fill: var(--color1, #4c00fe)" d="M1.646 32c-0.422 0-0.843-0.16-1.163-0.483-0.643-0.643-0.643-1.685 0-2.328l28.707-28.707c0.643-0.643 1.685-0.643 2.328 0s0.643 1.685 0 2.329l-28.707 28.706c-0.323 0.321-0.744 0.483-1.165 0.483z"></path>
<path fill="#4c00fe" style="fill: var(--color1, #4c00fe)" d="M30.355 32c-0.422 0-0.843-0.16-1.163-0.483l-28.709-28.706c-0.643-0.643-0.643-1.686 0-2.329s1.685-0.643 2.329 0l28.707 28.707c0.643 0.643 0.643 1.685 0 2.328-0.323 0.321-0.744 0.483-1.163 0.483z"></path>
</symbol>
<symbol id="icon-rectangle_footer" viewBox="0 0 32 32">
<path fill="none" stroke="#dc56c5" style="stroke: var(--color2, #dc56c5)" stroke-linejoin="miter" stroke-linecap="butt" stroke-miterlimit="4" stroke-width="1.0667" d="M0.533 10.667c0-5.596 4.537-10.133 10.133-10.133h20.8v20.8c0 5.596-4.537 10.133-10.133 10.133h-20.8v-20.8z"></path>
</symbol>
<symbol id="icon-search" viewBox="0 0 32 32">
<path fill="#939393" style="fill: var(--color3, #939393)" d="M4.024 4.024c2.595-2.595 6.045-4.024 9.715-4.024s7.12 1.429 9.715 4.024c2.595 2.595 4.024 6.045 4.024 9.715 0 3.355-1.195 6.526-3.383 9.029l7.63 7.63c0.366 0.366 0.366 0.961 0 1.327-0.183 0.183-0.423 0.275-0.664 0.275s-0.48-0.092-0.663-0.275l-7.63-7.63c-2.502 2.188-5.673 3.383-9.029 3.383-3.67 0-7.12-1.429-9.715-4.024s-4.024-6.045-4.024-9.715 1.429-7.12 4.024-9.715zM5.351 22.127c4.625 4.625 12.15 4.625 16.775 0s4.625-12.15 0-16.775c-2.313-2.313-5.35-3.469-8.388-3.469s-6.075 1.157-8.388 3.469c-4.625 4.625-4.625 12.15 0 16.775z"></path>
</symbol>
<symbol id="icon-select" viewBox="0 0 32 32">
<path fill="#939393" style="fill: var(--color3, #939393)" d="M16 25.846l-15.988-18.462h31.976l-15.988 18.462z"></path>
</symbol>
<symbol id="icon-ticket" viewBox="0 0 32 32">
<path d="M3.556 5.333h-3.556v21.333h3.556v-21.333z"></path>
<path d="M12.498 5.333h-3.556v21.333h3.556v-21.333z"></path>
<path d="M17.886 5.333h-3.556v21.333h3.556v-21.333z"></path>
<path d="M32 5.333h-5.279v21.333h5.279v-21.333z"></path>
<path d="M7.111 5.333h-1.724v21.333h1.724v-21.333z"></path>
<path d="M21.333 5.333h-1.724v21.333h1.724v-21.333z"></path>
<path d="M24.889 5.333h-1.724v21.333h1.724v-21.333z"></path>
</symbol>
</defs>
</svg>
